<svg version="1.1" viewBox="0.0 0.0 960.0 720.0" fill="none" stroke="none" stroke-linecap="square" stroke-miterlimit="10" xmlns:xlink="http://www.w3.org/1999/xlink" xmlns="http://www.w3.org/2000/svg"><clipPath id="p.0"><path d="m0 0l960.0 0l0 720.0l-960.0 0l0 -720.0z" clip-rule="nonzero"/></clipPath><g clip-path="url(#p.0)"><path fill="#000000" fill-opacity="0.0" d="m0 0l960.0 0l0 720.0l-960.0 0z" fill-rule="evenodd"/><path fill="#000000" fill-opacity="0.0" d="m183.63518 360.0l0 0c0 -158.10999 128.57536 -286.28345 287.1811 -286.28345l0 0c76.16516 0 149.21082 30.161919 203.06769 83.85048c53.856934 53.68857 84.1134 126.50589 84.1134 202.43298l0 0c0 158.10999 -128.57538 286.28345 -287.1811 286.28345l0 0c-158.60574 0 -287.1811 -128.17346 -287.1811 -286.28345z" fill-rule="evenodd"/><path stroke="#000000" stroke-width="1.0" stroke-linejoin="round" stroke-linecap="butt" d="m183.63518 360.0l0 0c0 -158.10999 128.57536 -286.28345 287.1811 -286.28345l0 0c76.16516 0 149.21082 30.161919 203.06769 83.85048c53.856934 53.68857 84.1134 126.50589 84.1134 202.43298l0 0c0 158.10999 -128.57538 286.28345 -287.1811 286.28345l0 0c-158.60574 0 -287.1811 -128.17346 -287.1811 -286.28345z" fill-rule="evenodd"/><path fill="#000000" fill-opacity="0.0" d="m476.6824 362.7139l416.0945 -6.3306885" fill-rule="evenodd"/><path stroke="#000000" stroke-width="1.0" stroke-linejoin="round" stroke-linecap="butt" d="m476.6824 362.7139l416.0945 -6.3306885" fill-rule="evenodd"/><path fill="#000000" fill-opacity="0.0" d="m476.6824 363.6168l-0.9133606 -358.2047" fill-rule="evenodd"/><path stroke="#000000" stroke-width="1.0" stroke-linejoin="round" stroke-linecap="butt" d="m476.6824 363.6168l-0.9133606 -358.2047" fill-rule="evenodd"/><path fill="#000000" fill-opacity="0.0" d="m478.49344 360.90552l-9.039368 373.57477" fill-rule="evenodd"/><path stroke="#000000" stroke-width="1.0" stroke-linejoin="round" stroke-linecap="butt" d="m478.49344 360.90552l-9.039368 373.57477" fill-rule="evenodd"/><path fill="#000000" fill-opacity="0.0" d="m476.6824 365.42783l-461.29132 -3.6220398" fill-rule="evenodd"/><path stroke="#000000" stroke-width="1.0" stroke-linejoin="round" stroke-linecap="butt" d="m476.6824 365.42783l-461.29132 -3.6220398" fill-rule="evenodd"/><path fill="#000000" fill-opacity="0.0" d="m475.77954 363.6168l360.9134 -322.89764" fill-rule="evenodd"/><path stroke="#000000" stroke-width="1.0" stroke-linejoin="round" stroke-linecap="butt" d="m475.77954 363.6168l360.9134 -322.89764" fill-rule="evenodd"/><path fill="#000000" fill-opacity="0.0" d="m477.58792 360.90552l366.33072 322.01575" fill-rule="evenodd"/><path stroke="#000000" stroke-width="1.0" stroke-linejoin="round" stroke-linecap="butt" d="m477.58792 360.90552l366.33072 322.01575" fill-rule="evenodd"/><path fill="#000000" fill-opacity="0.0" d="m475.77954 364.5223l-402.5197 347.3386" fill-rule="evenodd"/><path stroke="#000000" stroke-width="1.0" stroke-linejoin="round" stroke-linecap="butt" d="m475.77954 364.5223l-402.5197 347.3386" fill-rule="evenodd"/><path fill="#000000" fill-opacity="0.0" d="m476.6824 361.8084l-406.14172 -342.80316" fill-rule="evenodd"/><path stroke="#000000" stroke-width="1.0" stroke-linejoin="round" stroke-linecap="butt" d="m476.6824 361.8084l-406.14172 -342.80316" fill-rule="evenodd"/></g></svg>